<svg width="23" height="23" viewBox="0 0 23 23" fill="none" xmlns="http://www.w3.org/2000/svg">
    <mask id="path-1-inside-1_3949_24447" fill="white">
        <path d="M10.4932 0.411248C10.8926 -0.137082 11.7104 -0.137083 12.1098 0.411247L14.1103 3.15776C14.3312 3.46102 14.7032 3.61513 15.0739 3.55689L18.4305 3.02936C19.1006 2.92404 19.6789 3.50235 19.5736 4.17249L19.0461 7.52913C18.9879 7.89976 19.142 8.27181 19.4452 8.49269L22.1917 10.4932C22.7401 10.8926 22.7401 11.7104 22.1917 12.1098L19.4452 14.1103C19.142 14.3312 18.9879 14.7032 19.0461 15.0739L19.5736 18.4305C19.6789 19.1006 19.1006 19.6789 18.4305 19.5736L15.0739 19.0461C14.7032 18.9879 14.3312 19.142 14.1103 19.4452L12.1098 22.1917C11.7104 22.7401 10.8926 22.7401 10.4932 22.1917L8.49269 19.4452C8.27181 19.142 7.89976 18.9879 7.52913 19.0461L4.17249 19.5736C3.50235 19.6789 2.92404 19.1006 3.02936 18.4305L3.55689 15.0739C3.61513 14.7032 3.46103 14.3312 3.15776 14.1103L0.411248 12.1098C-0.137082 11.7104 -0.137083 10.8926 0.411247 10.4932L3.15776 8.49269C3.46102 8.27181 3.61513 7.89976 3.55689 7.52913L3.02936 4.17249C2.92404 3.50235 3.50235 2.92404 4.17249 3.02936L7.52913 3.55689C7.89976 3.61513 8.27181 3.46103 8.49269 3.15776L10.4932 0.411248Z"/>
    </mask>
    <path d="M7.52913 3.55689L7.21862 5.53264L7.52913 3.55689ZM8.49269 3.15776L10.1093 4.33527L8.49269 3.15776ZM3.02936 4.17249L5.00511 3.86199L3.02936 4.17249ZM4.17249 3.02936L4.483 1.05361L4.17249 3.02936ZM3.15776 8.49269L4.33527 10.1093L3.15776 8.49269ZM3.55689 7.52913L1.58114 7.83963L3.55689 7.52913ZM0.411248 12.1098L1.58875 10.4932L0.411248 12.1098ZM0.411247 10.4932L-0.766259 8.87655L0.411247 10.4932ZM3.55689 15.0739L5.53264 15.3844L3.55689 15.0739ZM3.15776 14.1103L1.98026 15.7269L3.15776 14.1103ZM4.17249 19.5736L3.86199 17.5979L4.17249 19.5736ZM3.02936 18.4305L1.05361 18.12L3.02936 18.4305ZM8.49269 19.4452L10.1093 18.2677L8.49269 19.4452ZM7.52913 19.0461L7.83963 21.0218L7.52913 19.0461ZM12.1098 22.1917L13.7264 23.3692L12.1098 22.1917ZM10.4932 22.1917L8.87655 23.3692L10.4932 22.1917ZM15.0739 19.0461L15.3844 17.0704L15.0739 19.0461ZM14.1103 19.4452L12.4937 18.2677L14.1103 19.4452ZM19.5736 18.4305L17.5979 18.741L19.5736 18.4305ZM18.4305 19.5736L18.12 21.5494L18.4305 19.5736ZM19.4452 14.1103L18.2677 12.4937L19.4452 14.1103ZM19.0461 15.0739L21.0218 14.7634L19.0461 15.0739ZM22.1917 10.4932L21.0142 12.1098L22.1917 10.4932ZM22.1917 12.1098L23.3692 13.7264L22.1917 12.1098ZM19.0461 7.52913L17.0704 7.21862L19.0461 7.52913ZM19.4452 8.49269L20.6227 6.87607L19.4452 8.49269ZM18.4305 3.02936L18.12 1.05361L18.4305 3.02936ZM19.5736 4.17249L21.5494 4.483L19.5736 4.17249ZM14.1103 3.15776L12.4937 4.33527L14.1103 3.15776ZM15.0739 3.55689L15.3844 5.53264L15.0739 3.55689ZM12.1098 0.411247L13.7264 -0.766259L12.1098 0.411247ZM10.4932 0.411248L8.87655 -0.766257L10.4932 0.411248ZM10.4932 1.58875L12.4937 4.33527L15.7269 1.98026L13.7264 -0.766259L10.4932 1.58875ZM15.3844 5.53264L18.741 5.00511L18.12 1.05361L14.7634 1.58114L15.3844 5.53264ZM17.5979 3.86198L17.0704 7.21862L21.0218 7.83963L21.5494 4.483L17.5979 3.86198ZM18.2677 10.1093L21.0142 12.1098L23.3692 8.87655L20.6227 6.87607L18.2677 10.1093ZM21.0142 10.4932L18.2677 12.4937L20.6227 15.7269L23.3692 13.7264L21.0142 10.4932ZM17.0704 15.3844L17.5979 18.741L21.5494 18.12L21.0218 14.7634L17.0704 15.3844ZM18.741 17.5979L15.3844 17.0704L14.7634 21.0218L18.12 21.5494L18.741 17.5979ZM12.4937 18.2677L10.4932 21.0142L13.7264 23.3692L15.7269 20.6227L12.4937 18.2677ZM12.1098 21.0142L10.1093 18.2677L6.87607 20.6227L8.87655 23.3692L12.1098 21.0142ZM7.21862 17.0704L3.86199 17.5979L4.483 21.5494L7.83963 21.0218L7.21862 17.0704ZM5.00511 18.741L5.53264 15.3844L1.58114 14.7634L1.05361 18.12L5.00511 18.741ZM4.33527 12.4937L1.58875 10.4932L-0.766257 13.7264L1.98026 15.7269L4.33527 12.4937ZM1.58875 12.1098L4.33527 10.1093L1.98026 6.87607L-0.766259 8.87655L1.58875 12.1098ZM5.53264 7.21862L5.00511 3.86199L1.05361 4.483L1.58114 7.83963L5.53264 7.21862ZM3.86198 5.00511L7.21862 5.53264L7.83963 1.58114L4.483 1.05361L3.86198 5.00511ZM10.1093 4.33527L12.1098 1.58875L8.87655 -0.766257L6.87607 1.98026L10.1093 4.33527ZM7.21862 5.53264C8.33051 5.70738 9.44666 5.24506 10.1093 4.33527L6.87607 1.98026C7.09696 1.677 7.46901 1.52289 7.83963 1.58114L7.21862 5.53264ZM5.00511 3.86199C5.11043 4.53212 4.53213 5.11043 3.86198 5.00511L4.483 1.05361C2.47258 0.737659 0.737661 2.47259 1.05361 4.483L5.00511 3.86199ZM4.33527 10.1093C5.24505 9.44666 5.70738 8.33051 5.53264 7.21862L1.58114 7.83963C1.52289 7.469 1.677 7.09695 1.98026 6.87607L4.33527 10.1093ZM1.58875 10.4932C2.13708 10.8926 2.13709 11.7104 1.58875 12.1098L-0.766259 8.87655C-2.41125 10.0747 -2.41124 12.5283 -0.766257 13.7264L1.58875 10.4932ZM5.53264 15.3844C5.70738 14.2725 5.24506 13.1563 4.33527 12.4937L1.98026 15.7269C1.677 15.506 1.52289 15.134 1.58114 14.7634L5.53264 15.3844ZM3.86199 17.5979C4.53212 17.4926 5.11043 18.0709 5.00511 18.741L1.05361 18.12C0.737659 20.1304 2.47259 21.8653 4.483 21.5494L3.86199 17.5979ZM10.1093 18.2677C9.44666 17.3579 8.33051 16.8956 7.21862 17.0704L7.83963 21.0218C7.469 21.0801 7.09695 20.926 6.87607 20.6227L10.1093 18.2677ZM10.4932 21.0142C10.8926 20.4659 11.7104 20.4659 12.1098 21.0142L8.87655 23.3692C10.0747 25.0142 12.5283 25.0142 13.7264 23.3692L10.4932 21.0142ZM15.3844 17.0704C14.2725 16.8956 13.1563 17.3579 12.4937 18.2677L15.7269 20.6227C15.506 20.926 15.134 21.0801 14.7634 21.0218L15.3844 17.0704ZM17.5979 18.741C17.4926 18.0709 18.0709 17.4926 18.741 17.5979L18.12 21.5494C20.1304 21.8653 21.8653 20.1304 21.5494 18.12L17.5979 18.741ZM18.2677 12.4937C17.3579 13.1563 16.8956 14.2725 17.0704 15.3844L21.0218 14.7634C21.0801 15.134 20.926 15.506 20.6227 15.7269L18.2677 12.4937ZM21.0142 12.1098C20.4659 11.7104 20.4659 10.8926 21.0142 10.4932L23.3692 13.7264C25.0142 12.5283 25.0142 10.0747 23.3692 8.87655L21.0142 12.1098ZM17.0704 7.21862C16.8956 8.33051 17.3579 9.44666 18.2677 10.1093L20.6227 6.87607C20.926 7.09696 21.0801 7.46901 21.0218 7.83963L17.0704 7.21862ZM18.741 5.00511C18.0709 5.11043 17.4926 4.53213 17.5979 3.86198L21.5494 4.483C21.8653 2.47258 20.1304 0.737661 18.12 1.05361L18.741 5.00511ZM12.4937 4.33527C13.1563 5.24505 14.2725 5.70738 15.3844 5.53264L14.7634 1.58114C15.134 1.52289 15.506 1.677 15.7269 1.98026L12.4937 4.33527ZM13.7264 -0.766259C12.5283 -2.41125 10.0747 -2.41124 8.87655 -0.766257L12.1098 1.58875C11.7104 2.13708 10.8926 2.13709 10.4932 1.58875L13.7264 -0.766259Z" fill="black" mask="url(#path-1-inside-1_3949_24447)"/>
</svg>
