<svg width="24" height="24" viewBox="0 0 24 24" fill="none" xmlns="http://www.w3.org/2000/svg">
    <path fill-rule="evenodd" clip-rule="evenodd"
          d="M1.8457 9.19101V18.4616C1.8457 20.5008 3.49881 22.1539 5.53801 22.1539H18.4611C20.5003 22.1539 22.1534 20.5008 22.1534 18.4616V7.38469C22.1534 5.34549 20.5003 3.69238 18.4611 3.69238H15.6605C15.7812 4.13339 15.8457 4.59764 15.8457 5.07696C15.8457 5.28517 15.8335 5.49053 15.8099 5.69238H18.4611C19.3957 5.69238 20.1534 6.45006 20.1534 7.38469V18.4616C20.1534 19.3962 19.3957 20.1539 18.4611 20.1539H5.53801C4.60338 20.1539 3.8457 19.3962 3.8457 18.4616V10.1621C3.10511 9.9835 2.42595 9.64731 1.8457 9.19101Z"
          fill="#000091"/>
    <rect x="2.8457" y="3" width="10" height="4.46154" rx="2.23077" stroke="#000091" stroke-width="2"/>
</svg>
