<?xml version="1.0" encoding="UTF-8" standalone="no"?><!DOCTYPE svg PUBLIC "-//W3C//DTD SVG 1.1//EN" "http://www.w3.org/Graphics/SVG/1.1/DTD/svg11.dtd"><svg width="98" height="70" viewBox="0 0 409 288" version="1.1" xmlns="http://www.w3.org/2000/svg" xmlns:xlink="http://www.w3.org/1999/xlink" xml:space="preserve" xmlns:serif="http://www.serif.com/" style="fill-rule:evenodd;clip-rule:evenodd;"><path d="M315.651,173.578l-0,-0Z" style="fill:none;fill-rule:nonzero;stroke:#000;stroke-width:8.33px;"/><path d="M315.651,173.578l68.444,24.445c7.262,2.595 7.408,12.813 0.222,15.613l-175.902,68.537c-1.92,0.748 -4.05,0.758 -5.977,0.028l-180.962,-68.536c-7.283,-2.758 -7.138,-13.111 0.219,-15.665l72.771,-25.264" style="fill:none;fill-rule:nonzero;stroke:#000;stroke-width:8.33px;"/><g><path d="M203.809,43.094l-0,-30.502c-0,-5.971 6.094,-10.004 11.59,-7.671l68.373,29.033c1.346,0.571 2.518,1.487 3.398,2.655l26.802,35.565c1.09,1.445 1.679,3.206 1.679,5.015l-0,120.291c-0,5.885 -5.933,9.915 -11.404,7.748l-43.284,-17.154" style="fill:none;fill-rule:nonzero;stroke:#000;stroke-width:8.33px;"/><path d="M285.808,34.831l-0,20.831c-0,3.228 1.863,6.165 4.783,7.54l23.798,11.204" style="fill:none;fill-rule:nonzero;stroke:#000;stroke-width:8.33px;"/></g><g><path d="M149.158,62.062l0,-30.502c0,-5.971 6.095,-10.005 11.59,-7.671l68.373,29.032c1.346,0.572 2.518,1.487 3.398,2.655l26.803,35.565c1.089,1.446 1.678,3.206 1.678,5.016l0,120.291c0,5.884 -5.933,9.915 -11.404,7.747l-43.283,-17.154" style="fill:none;fill-rule:nonzero;stroke:#000;stroke-width:8.33px;"/><path d="M231.157,53.798l-0,20.832c-0,3.228 1.863,6.165 4.784,7.54l23.798,11.203" style="fill:none;fill-rule:nonzero;stroke:#000;stroke-width:8.33px;"/></g><path d="M231.12,54.704l0,20.832c0,3.227 1.863,6.164 4.784,7.539l23.798,11.204" style="fill:none;fill-rule:nonzero;stroke:#000;stroke-width:8.33px;"/><path d="M194.905,244.99l-95.176,-37.719c-3.176,-1.259 -5.263,-4.33 -5.263,-7.747l0,-147.17c0,-5.97 6.095,-10.004 11.591,-7.67l68.372,29.032c1.346,0.572 2.518,1.487 3.398,2.655l26.803,35.565c1.089,1.446 1.678,3.206 1.678,5.016l0,120.291c0,5.884 -5.933,9.915 -11.403,7.747Z" style="fill:none;fill-rule:nonzero;stroke:#000;stroke-width:8.33px;"/><path d="M176.498,74.593l-0,20.832c-0,3.227 1.863,6.165 4.783,7.54l23.798,11.203" style="fill:none;fill-rule:nonzero;stroke:#000;stroke-width:8.33px;"/></svg>
