<svg width="30" height="21" viewBox="0 0 30 21" fill="none" xmlns="http://www.w3.org/2000/svg">
<path d="M15.1124 19.8668L3.54787 15.4869C2.67388 15.1559 2.6912 13.9136 3.57408 13.607L15.139 9.59206C15.3543 9.51731 15.5887 9.51835 15.8033 9.59501L27.0443 13.6099C27.9159 13.9211 27.9334 15.1474 27.071 15.4834L15.8296 19.8633C15.5992 19.9531 15.3437 19.9543 15.1124 19.8668Z" fill="#CECEFC" stroke="#000091"/>
<path d="M21.8817 14.2633L15.987 11.9271C15.6058 11.7761 15.3555 11.4076 15.3555 10.9975V1.51103C15.3555 0.794554 16.0868 0.310544 16.7463 0.590572L20.8984 2.35359C21.0599 2.42218 21.2005 2.53206 21.3061 2.6722L23.0488 4.98456C23.1795 5.15799 23.2502 5.36925 23.2502 5.58641V13.3336C23.2502 14.0397 22.5382 14.5234 21.8817 14.2633Z" fill="#CECEFC" stroke="#000091"/>
<path d="M21.1445 2.46094V3.67015C21.1445 4.05746 21.3682 4.40994 21.7186 4.57491L23.1621 5.25444" stroke="#000091"/>
<path d="M18.0224 15.6656L12.1277 13.3295C11.7464 13.1784 11.4961 12.8099 11.4961 12.3998V2.91337C11.4961 2.1969 12.2274 1.71289 12.8869 1.99292L17.039 3.75594C17.2005 3.82452 17.3411 3.9344 17.4467 4.07455L19.1894 6.3869C19.3201 6.56033 19.3908 6.77159 19.3908 6.98875V14.7359C19.3908 15.4421 18.6788 15.9258 18.0224 15.6656Z" fill="#CECEFC" stroke="#000091"/>
<path d="M17.2852 3.86328V5.07249C17.2852 5.4598 17.5088 5.81228 17.8592 5.97725L19.3027 6.65679" stroke="#000091"/>
<path d="M14.163 17.0719L8.26829 14.7357C7.88707 14.5847 7.63672 14.2162 7.63672 13.8061V4.31962C7.63672 3.60315 8.36807 3.11914 9.02756 3.39917L13.1796 5.16219C13.3411 5.23077 13.4818 5.34065 13.5874 5.4808L15.33 7.79315C15.4607 7.96658 15.5314 8.17784 15.5314 8.395V16.1422C15.5314 16.8483 14.8194 17.332 14.163 17.0719Z" fill="#CECEFC" stroke="#000091"/>
<path d="M13.4258 5.26953V6.47874C13.4258 6.86605 13.6494 7.21853 13.9999 7.3835L15.4433 8.06304" stroke="#000091"/>
</svg>
