<svg width="98" height="70" viewBox="0 0 98 70" fill="none" xmlns="http://www.w3.org/2000/svg">
<path d="M48.5851 68.2283L5.15434 51.7797C3.40635 51.1177 3.441 48.633 5.20676 48.02L48.6382 32.9419C49.0689 32.7924 49.5376 32.7945 49.9669 32.9478L92.1827 48.0256C93.9258 48.6482 93.9608 51.1007 92.2361 51.7727L50.0195 68.2215C49.5587 68.401 49.0476 68.4035 48.5851 68.2283Z" stroke="black" stroke-width="2"/>
<path d="M73.0193 49.7546L50.1772 40.7021C49.4148 40.4 48.9141 39.663 48.9141 38.8428V3.52206C48.9141 2.08911 50.3768 1.12109 51.6957 1.68114L68.1052 8.64884C68.4282 8.78601 68.7095 9.00577 68.9207 9.28605L75.3534 17.8217C75.6148 18.1686 75.7562 18.5911 75.7562 19.0254V47.8953C75.7562 49.3075 74.3322 50.2749 73.0193 49.7546Z" fill="white" stroke="black" stroke-width="2"/>
<path d="M68.5977 8.85938V13.859C68.5977 14.6337 69.045 15.3386 69.7458 15.6685L75.4573 18.3574" stroke="black" stroke-width="2"/>
<path d="M59.8943 54.5242L37.0522 45.4717C36.2898 45.1695 35.7891 44.4325 35.7891 43.6124V8.29159C35.7891 6.85864 37.2518 5.89062 38.5707 6.45067L54.9802 13.4184C55.3032 13.5555 55.5845 13.7753 55.7957 14.0556L62.2284 22.5913C62.4898 22.9381 62.6312 23.3606 62.6312 23.795V52.6649C62.6312 54.0771 61.2072 55.0445 59.8943 54.5242Z" fill="white" stroke="black" stroke-width="2"/>
<path d="M55.4727 13.6289V18.6286C55.4727 19.4032 55.92 20.1081 56.6208 20.4381L62.3323 23.1269" stroke="black" stroke-width="2"/>
<path d="M46.7732 59.2976L23.9311 50.2451C23.1687 49.9429 22.668 49.2059 22.668 48.3858V13.065C22.668 11.6321 24.1307 10.6641 25.4496 11.2241L41.8591 18.1918C42.1821 18.329 42.4634 18.5487 42.6746 18.829L49.1073 27.3647C49.3687 27.7116 49.5101 28.1341 49.5101 28.5684V57.4383C49.5101 58.8505 48.0861 59.8179 46.7732 59.2976Z" fill="white" stroke="black" stroke-width="2"/>
<path d="M42.3516 18.4023V23.402C42.3516 24.1766 42.7989 24.8816 43.4997 25.2115L49.2112 27.9003" stroke="black" stroke-width="2"/>
</svg>
