<svg width="90" height="66" viewBox="0 0 90 66" fill="none" xmlns="http://www.w3.org/2000/svg">
<path d="M44.9192 63.729L5.14926 48.6537C3.40199 47.9914 3.43664 45.5077 5.20172 44.8944L44.9724 31.0751C45.4033 30.9254 45.8725 30.9275 46.3021 31.081L84.9596 44.9C86.7019 45.5229 86.7369 47.9744 85.013 48.6466L46.3548 63.7222C45.8936 63.9021 45.3821 63.9045 44.9192 63.729Z" fill="#CACAFB" stroke="#000091" stroke-width="3"/>
<path d="M67.3807 46.552L46.5341 38.2831C45.7719 37.9808 45.2715 37.2439 45.2715 36.424V4.0231C45.2715 2.58987 46.7347 1.62185 48.0537 2.18242L62.9992 8.53405C63.3223 8.67135 63.6035 8.89127 63.8147 9.17169L69.7158 17.009C69.9769 17.3557 70.1181 17.778 70.1181 18.212V44.6929C70.1181 46.1054 68.6936 47.0728 67.3807 46.552Z" fill="#CECEFC" stroke="#000091" stroke-width="3"/>
<path d="M63.4746 8.74219V13.2814C63.4746 14.0558 63.9216 14.7605 64.6221 15.0906L69.8243 17.5418" stroke="#000091" stroke-width="3"/>
<path d="M55.2303 50.9817L34.3837 42.7128C33.6215 42.4104 33.1211 41.6736 33.1211 40.8537V8.45278C33.1211 7.01956 34.5843 6.05153 35.9034 6.61211L50.8488 12.9637C51.1719 13.101 51.4531 13.321 51.6643 13.6014L57.5654 21.4387C57.8265 21.7854 57.9677 22.2076 57.9677 22.6417V49.1226C57.9677 50.535 56.5432 51.5025 55.2303 50.9817Z" fill="#CECEFC" stroke="#000091" stroke-width="3"/>
<path d="M51.3242 13.1719V17.7111C51.3242 18.4854 51.7712 19.1902 52.4717 19.5203L57.6739 21.9715" stroke="#000091" stroke-width="3"/>
<path d="M43.0721 55.3879L22.2255 47.119C21.4633 46.8167 20.9629 46.0798 20.9629 45.2599V12.859C20.9629 11.4258 22.4261 10.4578 23.7451 11.0184L38.6906 17.37C39.0137 17.5073 39.2949 17.7272 39.5061 18.0076L45.4072 25.8449C45.6683 26.1916 45.8095 26.6139 45.8095 27.0479V53.5288C45.8095 54.9413 44.385 55.9087 43.0721 55.3879Z" fill="#CECEFC" stroke="#000091" stroke-width="3"/>
<path d="M39.166 17.5781V22.1173C39.166 22.8917 39.613 23.5965 40.3135 23.9265L45.5157 26.3777" stroke="#000091" stroke-width="3"/>
</svg>
