<svg width="54" height="64" viewBox="0 0 54 64" fill="none" xmlns="http://www.w3.org/2000/svg">
<path d="M32.2062 2H4C2.89543 2 2 2.89543 2 4V60C2 61.1046 2.89543 62 4 62H49.6552C50.7597 62 51.6552 61.1046 51.6552 60L51.6554 21.4491C51.6554 20.9187 51.4446 20.41 51.0696 20.0349L33.6205 2.58579C33.2454 2.21071 32.7367 2 32.2062 2Z" fill="#CECEFC"/>
<path d="M51.6554 20.6207H35.0347C33.9301 20.6207 33.0347 19.7253 33.0347 18.6207V2M4 2H32.2062C32.7367 2 33.2454 2.21071 33.6205 2.58579L51.0696 20.0349C51.4446 20.41 51.6554 20.9187 51.6554 21.4491L51.6552 60C51.6552 61.1046 50.7597 62 49.6552 62H4C2.89543 62 2 61.1046 2 60V4C2 2.89543 2.89543 2 4 2Z" stroke="#000091" stroke-width="3"/>
</svg>
