<svg width="35" height="32" viewBox="0 0 35 32" fill="none" xmlns="http://www.w3.org/2000/svg">
<mask id="path-1-inside-1_4724_375134" fill="white">
<path d="M0.929688 7.29337H21.8981L19.0901 1.16669C18.7642 0.455786 18.0539 0 17.2719 0H2.92969C1.82512 0 0.929688 0.89543 0.929688 2V7.29337Z"/>
</mask>
<path d="M0.929688 7.29337H21.8981L19.0901 1.16669C18.7642 0.455786 18.0539 0 17.2719 0H2.92969C1.82512 0 0.929688 0.89543 0.929688 2V7.29337Z" fill="#CECEFC"/>
<path d="M0.929688 7.29337H-1.07031V9.29337H0.929688V7.29337ZM21.8981 7.29337V9.29337H25.0149L23.7163 6.46006L21.8981 7.29337ZM19.0901 1.16669L17.2719 2L19.0901 1.16669ZM0.929688 9.29337H21.8981V5.29337H0.929688V9.29337ZM23.7163 6.46006L20.9082 0.333381L17.2719 2L20.08 8.12668L23.7163 6.46006ZM17.2719 -2H2.92969V2H17.2719V-2ZM-1.07031 2V7.29337H2.92969V2H-1.07031ZM2.92969 -2C0.720543 -2 -1.07031 -0.209136 -1.07031 2H2.92969L2.92969 2V-2ZM20.9082 0.333381C20.2565 -1.08843 18.836 -2 17.2719 -2V2L20.9082 0.333381Z" fill="#000091" mask="url(#path-1-inside-1_4724_375134)"/>
<path d="M1.92969 5.92383H32.5704C33.1226 5.92383 33.5704 6.37155 33.5704 6.92383V30.0005C33.5704 30.5527 33.1226 31.0005 32.5704 31.0005H2.92969C2.3774 31.0005 1.92969 30.5527 1.92969 30.0005V5.92383Z" fill="#CECEFC" stroke="#000091" stroke-width="2"/>
</svg>
