<svg width="18" height="18" viewBox="0 0 18 18" fill="none" xmlns="http://www.w3.org/2000/svg">
<path d="M1.46875 15V3C1.46875 1.89543 2.36418 1 3.46875 1H9.03344C9.50604 1 9.96337 1.16736 10.3243 1.47239L13.9361 4.5245C14.3858 4.90451 14.6452 5.46336 14.6452 6.05211V15C14.6452 16.1046 13.7498 17 12.6452 17H3.46875C2.36418 17 1.46875 16.1046 1.46875 15Z" fill="#CACAFB" stroke="#000091"/>
<path d="M9.625 1V3.39216C9.625 4.49673 10.5204 5.39216 11.625 5.39216H14.6446" stroke="#000091"/>
<line x1="4.32031" y1="6.5" x2="8.32031" y2="6.5" stroke="#000091" stroke-linecap="round"/>
<path d="M16.3259 5L9.46875 11.8571V13H10.6116L17.4688 6.14286L16.3259 5Z" fill="#000091"/>
<line x1="4.32031" y1="9.5" x2="7.32031" y2="9.5" stroke="#000091" stroke-linecap="round"/>
</svg>
