<svg width="67" height="59" viewBox="0 0 67 59" fill="none" xmlns="http://www.w3.org/2000/svg">
    <path d="M17.5376 21.8515L32.9294 27.6809C33.392 27.8561 33.903 27.8536 34.3639 27.6741L49.3076 21.8515M17.5376 21.8515L2.34407 27.1263C0.578307 27.7393 0.54366 30.224 2.29165 30.886L17.543 36.6622M17.5376 21.8515L2.29165 16.0774C0.54366 15.4154 0.578307 12.9307 2.34407 12.3177L32.9826 1.68093C33.4132 1.53144 33.882 1.53352 34.3112 1.68684L64.092 12.3233C65.835 12.9459 65.87 15.3984 64.1453 16.0703L49.3076 21.8515M49.3076 21.8515L64.092 27.1319C65.835 27.7545 65.87 30.207 64.1453 30.8789L49.3024 36.6622M49.3024 36.6622L64.0919 41.9444C65.835 42.567 65.87 45.0195 64.1453 45.6914L34.3639 57.2952C33.903 57.4747 33.392 57.4771 32.9294 57.302L2.29165 45.6985C0.543659 45.0365 0.578307 42.5518 2.34407 41.9388L17.543 36.6622M49.3024 36.6622L34.3639 42.4827C33.903 42.6622 33.392 42.6646 32.9294 42.4895L17.543 36.6622"
          stroke="#161616" stroke-width="2"/>
</svg>
